<?xml version="1.0" standalone="no"?>
<!DOCTYPE svg PUBLIC "-//W3C//DTD SVG 20010904//EN"
 "http://www.w3.org/TR/2001/REC-SVG-20010904/DTD/svg10.dtd">
<svg version="1.0" xmlns="http://www.w3.org/2000/svg"
 width="500.000000pt" height="500.000000pt" viewBox="0 0 500.000000 500.000000"
 preserveAspectRatio="xMidYMid meet">
<metadata>
Created by potrace 1.14, written by Peter Selinger 2001-2017
</metadata>
<g transform="translate(0.000000,500.000000) scale(0.100000,-0.100000)"
fill="#000000" stroke="none">
<path d="M954 3473 c35 -271 35 -1628 0 -1895 l-6 -48 237 0 238 0 -7 58 c-8
69 -25 502 -26 660 l0 114 58 60 57 59 277 -354 c309 -395 381 -492 411 -554
l21 -43 343 0 343 0 -5 28 c-15 81 -25 344 -25 625 l0 317 405 0 405 0 0 -317
c0 -281 -10 -544 -25 -625 l-5 -28 236 0 236 0 -9 118 c-10 150 -11 1600 0
1755 l8 117 -235 0 -235 0 4 -27 c15 -82 25 -345 25 -625 l0 -318 -405 0 -405
0 0 323 c0 283 10 533 25 620 l5 27 -238 0 -237 0 -66 -79 c-60 -73 -943 -982
-961 -989 -17 -7 -2 850 18 1011 l7 57 -238 0 -237 0 6 -47z m1491 -195 c3
-79 5 -408 3 -731 l-3 -588 -315 410 c-173 225 -316 413 -317 418 -4 10 604
633 617 633 4 0 11 -64 15 -142z"/>
</g>
</svg>
